<svg xmlns="http://www.w3.org/2000/svg" xmlns:xlink="http://www.w3.org/1999/xlink" width="300" height="300" viewBox="0 0 300 300">
  <defs>
    <clipPath id="clip-path">
      <rect id="Rectangle_4" data-name="Rectangle 4" width="150" height="150" fill="#e2c044"/>
    </clipPath>
  </defs>
  <g id="audio_button" data-name="audio button" transform="translate(-4)">
    <circle id="Ellipse_1" data-name="Ellipse 1" cx="150" cy="150" r="150" transform="translate(4)" fill="#fff"/>
    <g id="Group_8" data-name="Group 8" transform="translate(79 75)" clip-path="url(#clip-path)">
      <path id="Path_10" data-name="Path 10" d="M25.972,83.1H3.344a3.344,3.344,0,1,0,0,6.688H25.972a3.344,3.344,0,0,0,0-6.688Z" transform="translate(0 41.548)" fill="#e2c044"/>
      <path id="Path_11" data-name="Path 11" d="M25.972,73H3.344a3.344,3.344,0,0,0,0,6.688H25.972a3.344,3.344,0,0,0,0-6.688Z" transform="translate(0 36.502)" fill="#e2c044"/>
      <path id="Path_12" data-name="Path 12" d="M25.972,62.91H3.344a3.344,3.344,0,1,0,0,6.688H25.972a3.344,3.344,0,1,0,0-6.688Z" transform="translate(0 31.455)" fill="#e2c044"/>
      <path id="Path_13" data-name="Path 13" d="M25.972,52.817H3.344a3.344,3.344,0,1,0,0,6.688H25.972a3.344,3.344,0,0,0,0-6.688Z" transform="translate(0 26.409)" fill="#e2c044"/>
      <path id="Path_14" data-name="Path 14" d="M25.972,42.724H3.344a3.344,3.344,0,0,0,0,6.688H25.972a3.344,3.344,0,0,0,0-6.688Z" transform="translate(0 21.362)" fill="#e2c044"/>
      <path id="Path_15" data-name="Path 15" d="M25.972,32.631H3.344a3.344,3.344,0,0,0,0,6.688H25.972a3.344,3.344,0,0,0,0-6.688Z" transform="translate(0 16.315)" fill="#e2c044"/>
      <path id="Path_16" data-name="Path 16" d="M25.972,22.538H3.344a3.344,3.344,0,0,0,0,6.688H25.972a3.344,3.344,0,0,0,0-6.688Z" transform="translate(0 11.269)" fill="#e2c044"/>
      <path id="Path_17" data-name="Path 17" d="M25.972,12.445H3.344a3.344,3.344,0,0,0,0,6.688H25.972a3.344,3.344,0,0,0,0-6.688Z" transform="translate(0 6.222)" fill="#e2c044"/>
      <path id="Path_18" data-name="Path 18" d="M52.79,83.1H30.162a3.344,3.344,0,1,0,0,6.688H52.79a3.344,3.344,0,1,0,0-6.688Z" transform="translate(13.409 41.548)" fill="#e2c044"/>
      <path id="Path_19" data-name="Path 19" d="M52.79,73H30.162a3.344,3.344,0,0,0,0,6.688H52.79a3.344,3.344,0,1,0,0-6.688Z" transform="translate(13.409 36.502)" fill="#e2c044"/>
      <path id="Path_20" data-name="Path 20" d="M52.79,62.91H30.162a3.344,3.344,0,1,0,0,6.688H52.79a3.344,3.344,0,1,0,0-6.688Z" transform="translate(13.409 31.455)" fill="#e2c044"/>
      <path id="Path_21" data-name="Path 21" d="M52.79,52.817H30.162a3.344,3.344,0,1,0,0,6.688H52.79a3.344,3.344,0,1,0,0-6.688Z" transform="translate(13.409 26.409)" fill="#e2c044"/>
      <path id="Path_22" data-name="Path 22" d="M52.79,42.724H30.162a3.344,3.344,0,0,0,0,6.688H52.79a3.344,3.344,0,1,0,0-6.688Z" transform="translate(13.409 21.362)" fill="#e2c044"/>
      <path id="Path_23" data-name="Path 23" d="M79.609,83.1H56.981a3.344,3.344,0,1,0,0,6.688H79.609a3.344,3.344,0,1,0,0-6.688Z" transform="translate(26.819 41.548)" fill="#e2c044"/>
      <path id="Path_24" data-name="Path 24" d="M79.609,73H56.981a3.344,3.344,0,1,0,0,6.688H79.609a3.344,3.344,0,1,0,0-6.688Z" transform="translate(26.819 36.502)" fill="#e2c044"/>
      <path id="Path_25" data-name="Path 25" d="M106.428,83.1H83.8a3.344,3.344,0,0,0,0,6.688h22.628a3.344,3.344,0,0,0,0-6.688Z" transform="translate(40.228 41.548)" fill="#e2c044"/>
      <path id="Path_26" data-name="Path 26" d="M106.428,73H83.8a3.344,3.344,0,0,0,0,6.688h22.628a3.344,3.344,0,0,0,0-6.688Z" transform="translate(40.228 36.502)" fill="#e2c044"/>
      <path id="Path_27" data-name="Path 27" d="M106.428,62.91H83.8a3.344,3.344,0,0,0,0,6.688h22.628a3.344,3.344,0,1,0,0-6.688Z" transform="translate(40.228 31.455)" fill="#e2c044"/>
      <path id="Path_28" data-name="Path 28" d="M106.428,52.817H83.8a3.344,3.344,0,0,0,0,6.688h22.628a3.344,3.344,0,0,0,0-6.688Z" transform="translate(40.228 26.409)" fill="#e2c044"/>
      <path id="Path_29" data-name="Path 29" d="M106.428,42.724H83.8a3.344,3.344,0,0,0,0,6.688h22.628a3.344,3.344,0,0,0,0-6.688Z" transform="translate(40.228 21.362)" fill="#e2c044"/>
      <path id="Path_30" data-name="Path 30" d="M106.428,32.631H83.8a3.344,3.344,0,0,0,0,6.688h22.628a3.344,3.344,0,0,0,0-6.688Z" transform="translate(40.228 16.315)" fill="#e2c044"/>
      <path id="Path_31" data-name="Path 31" d="M106.428,22.538H83.8a3.344,3.344,0,0,0,0,6.688h22.628a3.344,3.344,0,0,0,0-6.688Z" transform="translate(40.228 11.269)" fill="#e2c044"/>
      <path id="Path_32" data-name="Path 32" d="M83.8,19.133h22.628a3.344,3.344,0,0,0,0-6.688H83.8a3.344,3.344,0,0,0,0,6.688Z" transform="translate(40.228 6.222)" fill="#e2c044"/>
    </g>
  </g>
</svg>
