<svg id="hamburger_menu" data-name="hamburger menu" xmlns="http://www.w3.org/2000/svg" width="55" height="55" viewBox="0 0 55 55">
  <path id="Path_1" data-name="Path 1" d="M27.5,0A27.5,27.5,0,1,0,55,27.5,27.5,27.5,0,0,0,27.5,0Zm0,53.167A25.667,25.667,0,1,1,53.167,27.5,25.667,25.667,0,0,1,27.5,53.167Z" fill="#e2c044"/>
  <path id="Path_2" data-name="Path 2" d="M47.083,16.667h-32.5c-.69,0-1.25.373-1.25.833s.56.833,1.25.833h32.5c.69,0,1.25-.373,1.25-.833S47.774,16.667,47.083,16.667Z" transform="translate(-3.185 1.724)" fill="#e2c044"/>
  <path id="Path_3" data-name="Path 3" d="M47.083,25h-32.5c-.69,0-1.25.373-1.25.833s.56.833,1.25.833h32.5c.69,0,1.25-.373,1.25-.833S47.774,25,47.083,25Z" transform="translate(-3.185 2.586)" fill="#e2c044"/>
  <path id="Path_4" data-name="Path 4" d="M47.083,33.333h-32.5c-.69,0-1.25.373-1.25.833s.56.833,1.25.833h32.5c.69,0,1.25-.373,1.25-.833S47.774,33.333,47.083,33.333Z" transform="translate(-3.185 3.448)" fill="#e2c044"/>
</svg>
