<svg xmlns="http://www.w3.org/2000/svg" xmlns:xlink="http://www.w3.org/1999/xlink" width="300" height="300" viewBox="0 0 300 300">
  <defs>
    <clipPath id="clip-path">
      <rect id="Rectangle_2" data-name="Rectangle 2" width="150" height="150" transform="translate(54 50)" fill="#fff"/>
    </clipPath>
  </defs>
  <g id="text_button" data-name="text button" transform="translate(656 -120)" style="isolation: isolate">
    <circle id="Ellipse_1" data-name="Ellipse 1" cx="150" cy="150" r="150" transform="translate(-656 120)" fill="#fff"/>
    <g id="Group_2" data-name="Group 2" transform="translate(-634 145)" clip-path="url(#clip-path)">
      <path id="Path_5" data-name="Path 5" d="M199.5,59.459H58.5a4.5,4.5,0,1,0,0,9.009H199.5a4.5,4.5,0,1,0,0-9.009Z" transform="translate(0 4.73)" fill="#e2c044"/>
      <path id="Path_6" data-name="Path 6" d="M157.6,84.384H58.5a4.5,4.5,0,0,0,0,9.009h99.1a4.5,4.5,0,1,0,0-9.009Z" transform="translate(0 17.192)" fill="#e2c044"/>
      <path id="Path_7" data-name="Path 7" d="M199.5,109.61H58.5a4.5,4.5,0,1,0,0,9.009H199.5a4.5,4.5,0,1,0,0-9.009Z" transform="translate(0 29.805)" fill="#e2c044"/>
      <path id="Path_8" data-name="Path 8" d="M122.018,134.535H58.5a4.5,4.5,0,1,0,0,9.009h63.513a4.5,4.5,0,0,0,0-9.009Z" transform="translate(0 42.268)" fill="#e2c044"/>
    </g>
  </g>
</svg>
